<mxfile host="app.diagrams.net" modified="2023-06-24T20:09:26.890Z" agent="Mozilla/5.0 (Windows NT 10.0; Win64; x64) AppleWebKit/537.36 (KHTML, like Gecko) Chrome/114.0.0.0 Safari/537.36 Edg/114.0.1823.58" version="21.5.0" etag="IWHA9VA79aQOsXVGiLmE" type="onedrive">
  <diagram name="Page-1" id="6jVdgPlfG_z56_YF81ZG">
    <mxGraphModel>
      <root>
        <mxCell id="0" />
        <mxCell id="1" parent="0" />
      </root>
    </mxGraphModel>
  </diagram>
</mxfile>
